<mxfile host="65bd71144e">
    <diagram id="yO2Hn7P70DRvQ9meZuGr" name="Page-1">
        <mxGraphModel dx="489" dy="530" grid="0" gridSize="10" guides="1" tooltips="1" connect="1" arrows="1" fold="1" page="1" pageScale="1" pageWidth="1100" pageHeight="850" math="0" shadow="0">
            <root>
                <mxCell id="0"/>
                <mxCell id="1" parent="0"/>
                <mxCell id="g2mp1iHnJg5ZlarFbLCi-1" value="" style="rounded=1;whiteSpace=wrap;html=1;" parent="1" vertex="1">
                    <mxGeometry x="60" y="80" width="190" height="330" as="geometry"/>
                </mxCell>
                <mxCell id="g2mp1iHnJg5ZlarFbLCi-2" value="" style="rounded=1;whiteSpace=wrap;html=1;" parent="1" vertex="1">
                    <mxGeometry x="481" y="66" width="570" height="640" as="geometry"/>
                </mxCell>
                <mxCell id="g2mp1iHnJg5ZlarFbLCi-4" value="" style="rounded=0;whiteSpace=wrap;html=1;" parent="1" vertex="1">
                    <mxGeometry x="520" y="160" width="260" height="140" as="geometry"/>
                </mxCell>
                <mxCell id="g2mp1iHnJg5ZlarFbLCi-5" value="" style="rounded=0;whiteSpace=wrap;html=1;" parent="1" vertex="1">
                    <mxGeometry x="880" y="160" width="130" height="140" as="geometry"/>
                </mxCell>
                <mxCell id="g2mp1iHnJg5ZlarFbLCi-6" value="" style="rounded=0;whiteSpace=wrap;html=1;" parent="1" vertex="1">
                    <mxGeometry x="510" y="430" width="130" height="140" as="geometry"/>
                </mxCell>
                <mxCell id="g2mp1iHnJg5ZlarFbLCi-7" value="" style="rounded=0;whiteSpace=wrap;html=1;" parent="1" vertex="1">
                    <mxGeometry x="680" y="430" width="130" height="140" as="geometry"/>
                </mxCell>
                <mxCell id="g2mp1iHnJg5ZlarFbLCi-8" value="" style="rounded=0;whiteSpace=wrap;html=1;" parent="1" vertex="1">
                    <mxGeometry x="888" y="366" width="130" height="140" as="geometry"/>
                </mxCell>
                <mxCell id="g2mp1iHnJg5ZlarFbLCi-9" value="" style="endArrow=classic;html=1;rounded=0;entryX=0;entryY=0.321;entryDx=0;entryDy=0;entryPerimeter=0;" parent="1" target="g2mp1iHnJg5ZlarFbLCi-4" edge="1">
                    <mxGeometry width="50" height="50" relative="1" as="geometry">
                        <mxPoint x="249" y="205" as="sourcePoint"/>
                        <mxPoint x="574" y="348" as="targetPoint"/>
                    </mxGeometry>
                </mxCell>
                <mxCell id="g2mp1iHnJg5ZlarFbLCi-10" value="" style="endArrow=none;dashed=1;html=1;rounded=0;" parent="1" edge="1">
                    <mxGeometry width="50" height="50" relative="1" as="geometry">
                        <mxPoint x="342" y="675" as="sourcePoint"/>
                        <mxPoint x="342" y="18" as="targetPoint"/>
                    </mxGeometry>
                </mxCell>
                <mxCell id="g2mp1iHnJg5ZlarFbLCi-11" value="&lt;font style=&quot;font-size: 18px;&quot;&gt;On Chain&lt;/font&gt;" style="text;html=1;strokeColor=none;fillColor=none;align=center;verticalAlign=middle;whiteSpace=wrap;rounded=0;" parent="1" vertex="1">
                    <mxGeometry x="683" y="24" width="114" height="47" as="geometry"/>
                </mxCell>
                <mxCell id="g2mp1iHnJg5ZlarFbLCi-14" value="&lt;font style=&quot;font-size: 18px;&quot;&gt;Off Chain&lt;/font&gt;" style="text;html=1;strokeColor=none;fillColor=none;align=center;verticalAlign=middle;whiteSpace=wrap;rounded=0;" parent="1" vertex="1">
                    <mxGeometry x="154" y="26" width="107" height="47" as="geometry"/>
                </mxCell>
                <mxCell id="g2mp1iHnJg5ZlarFbLCi-16" value="&lt;span style=&quot;font-size: 18px;&quot;&gt;React App&lt;/span&gt;" style="text;html=1;strokeColor=none;fillColor=none;align=center;verticalAlign=middle;whiteSpace=wrap;rounded=0;" parent="1" vertex="1">
                    <mxGeometry x="48" y="24" width="94" height="47" as="geometry"/>
                </mxCell>
                <mxCell id="g2mp1iHnJg5ZlarFbLCi-17" value="" style="rounded=0;whiteSpace=wrap;html=1;fontSize=18;" parent="1" vertex="1">
                    <mxGeometry x="175" y="161" width="75" height="85" as="geometry"/>
                </mxCell>
                <mxCell id="g2mp1iHnJg5ZlarFbLCi-18" value="&lt;font style=&quot;font-size: 15px;&quot;&gt;web3.js&lt;/font&gt;" style="text;html=1;strokeColor=none;fillColor=none;align=center;verticalAlign=middle;whiteSpace=wrap;rounded=0;fontSize=18;" parent="1" vertex="1">
                    <mxGeometry x="184" y="168" width="60" height="30" as="geometry"/>
                </mxCell>
                <mxCell id="g2mp1iHnJg5ZlarFbLCi-19" value="&lt;font style=&quot;font-size: 15px;&quot;&gt;Ethers.js&lt;/font&gt;" style="text;html=1;strokeColor=none;fillColor=none;align=center;verticalAlign=middle;whiteSpace=wrap;rounded=0;fontSize=18;" parent="1" vertex="1">
                    <mxGeometry x="184" y="210" width="60" height="30" as="geometry"/>
                </mxCell>
                <mxCell id="g2mp1iHnJg5ZlarFbLCi-20" value="" style="rounded=0;whiteSpace=wrap;html=1;fontSize=18;" parent="1" vertex="1">
                    <mxGeometry x="71" y="112" width="89" height="268" as="geometry"/>
                </mxCell>
                <mxCell id="g2mp1iHnJg5ZlarFbLCi-21" value="&lt;font style=&quot;font-size: 14px;&quot;&gt;React Components&lt;/font&gt;" style="text;html=1;strokeColor=none;fillColor=none;align=center;verticalAlign=middle;whiteSpace=wrap;rounded=0;fontSize=18;" parent="1" vertex="1">
                    <mxGeometry x="82" y="203.5" width="60" height="30" as="geometry"/>
                </mxCell>
                <mxCell id="g2mp1iHnJg5ZlarFbLCi-22" value="Insurance Smart Contract" style="text;html=1;strokeColor=none;fillColor=none;align=center;verticalAlign=middle;whiteSpace=wrap;rounded=0;fontSize=15;" parent="1" vertex="1">
                    <mxGeometry x="620" y="181" width="60" height="75" as="geometry"/>
                </mxCell>
                <mxCell id="g2mp1iHnJg5ZlarFbLCi-23" value="Onboarding Smart Contract" style="text;html=1;strokeColor=none;fillColor=none;align=center;verticalAlign=middle;whiteSpace=wrap;rounded=0;fontSize=15;" parent="1" vertex="1">
                    <mxGeometry x="918" y="166" width="60" height="75" as="geometry"/>
                </mxCell>
                <mxCell id="g2mp1iHnJg5ZlarFbLCi-24" value="Premium Collector Smart Contract" style="text;html=1;strokeColor=none;fillColor=none;align=center;verticalAlign=middle;whiteSpace=wrap;rounded=0;fontSize=15;" parent="1" vertex="1">
                    <mxGeometry x="550" y="451" width="60" height="90" as="geometry"/>
                </mxCell>
                <mxCell id="g2mp1iHnJg5ZlarFbLCi-25" value="Claim Manager Smart Contract" style="text;html=1;strokeColor=none;fillColor=none;align=center;verticalAlign=middle;whiteSpace=wrap;rounded=0;fontSize=15;" parent="1" vertex="1">
                    <mxGeometry x="719" y="452.5" width="52" height="83" as="geometry"/>
                </mxCell>
                <mxCell id="g2mp1iHnJg5ZlarFbLCi-26" value="Policy Smart Contract" style="text;html=1;strokeColor=none;fillColor=none;align=center;verticalAlign=middle;whiteSpace=wrap;rounded=0;fontSize=15;" parent="1" vertex="1">
                    <mxGeometry x="923" y="391" width="60" height="69" as="geometry"/>
                </mxCell>
                <mxCell id="g2mp1iHnJg5ZlarFbLCi-29" value="" style="endArrow=none;html=1;rounded=0;fontSize=15;exitX=0.5;exitY=0;exitDx=0;exitDy=0;entryX=0.208;entryY=1.007;entryDx=0;entryDy=0;entryPerimeter=0;" parent="1" source="g2mp1iHnJg5ZlarFbLCi-6" target="g2mp1iHnJg5ZlarFbLCi-4" edge="1">
                    <mxGeometry width="50" height="50" relative="1" as="geometry">
                        <mxPoint x="524" y="347" as="sourcePoint"/>
                        <mxPoint x="574" y="297" as="targetPoint"/>
                    </mxGeometry>
                </mxCell>
                <mxCell id="g2mp1iHnJg5ZlarFbLCi-30" value="" style="endArrow=none;html=1;rounded=0;fontSize=15;exitX=0.5;exitY=0;exitDx=0;exitDy=0;entryX=0.208;entryY=1.007;entryDx=0;entryDy=0;entryPerimeter=0;" parent="1" edge="1">
                    <mxGeometry width="50" height="50" relative="1" as="geometry">
                        <mxPoint x="725.92" y="430" as="sourcePoint"/>
                        <mxPoint x="724.9999999999999" y="300.98" as="targetPoint"/>
                    </mxGeometry>
                </mxCell>
                <mxCell id="g2mp1iHnJg5ZlarFbLCi-31" value="" style="endArrow=none;html=1;rounded=0;fontSize=15;exitX=0.5;exitY=0;exitDx=0;exitDy=0;entryX=0.554;entryY=1.014;entryDx=0;entryDy=0;entryPerimeter=0;" parent="1" source="g2mp1iHnJg5ZlarFbLCi-8" target="g2mp1iHnJg5ZlarFbLCi-5" edge="1">
                    <mxGeometry width="50" height="50" relative="1" as="geometry">
                        <mxPoint x="948" y="364" as="sourcePoint"/>
                        <mxPoint x="951" y="296" as="targetPoint"/>
                    </mxGeometry>
                </mxCell>
                <mxCell id="g2mp1iHnJg5ZlarFbLCi-32" value="" style="endArrow=none;html=1;rounded=0;fontSize=15;entryX=0.208;entryY=1.007;entryDx=0;entryDy=0;entryPerimeter=0;" parent="1" edge="1">
                    <mxGeometry width="50" height="50" relative="1" as="geometry">
                        <mxPoint x="880" y="222" as="sourcePoint"/>
                        <mxPoint x="779.9999999999999" y="222" as="targetPoint"/>
                    </mxGeometry>
                </mxCell>
            </root>
        </mxGraphModel>
    </diagram>
</mxfile>